<svg width="512" height="512" viewBox="0 0 512 512" xmlns="http://www.w3.org/2000/svg">
  <defs>
    <linearGradient id="goldGradient" x1="0%" y1="0%" x2="100%" y2="100%">
      <stop offset="0%" style="stop-color:#FFD700;stop-opacity:1" />
      <stop offset="50%" style="stop-color:#FFA500;stop-opacity:1" />
      <stop offset="100%" style="stop-color:#FF8C00;stop-opacity:1" />
    </linearGradient>
    <linearGradient id="shadowGradient" x1="0%" y1="0%" x2="100%" y2="100%">
      <stop offset="0%" style="stop-color:#8B4513;stop-opacity:0.8" />
      <stop offset="100%" style="stop-color:#654321;stop-opacity:0.6" />
    </linearGradient>
  </defs>
  
  <!-- Background circle -->
  <circle cx="256" cy="256" r="240" fill="#1a1a1a" stroke="#2c5f2d" stroke-width="8"/>
  
  <!-- Shadow for depth -->
  <path d="M 256 120 L 380 280 L 132 280 Z" fill="url(#shadowGradient)" opacity="0.3"/>
  
  <!-- Main triforce -->
  <path d="M 256 120 L 380 280 L 132 280 Z" fill="url(#goldGradient)" stroke="#B8860B" stroke-width="4"/>
  
  <!-- Top triangle -->
  <path d="M 256 120 L 318 200 L 194 200 Z" fill="url(#goldGradient)" stroke="#B8860B" stroke-width="3"/>
  
  <!-- Bottom left triangle -->
  <path d="M 194 200 L 256 280 L 132 280 Z" fill="url(#goldGradient)" stroke="#B8860B" stroke-width="3"/>
  
  <!-- Bottom right triangle -->
  <path d="M 318 200 L 380 280 L 256 280 Z" fill="url(#goldGradient)" stroke="#B8860B" stroke-width="3"/>
  
  <!-- Inner highlights for 3D effect -->
  <path d="M 256 120 L 318 200 L 194 200 Z" fill="none" stroke="#FFD700" stroke-width="2" opacity="0.8"/>
  <path d="M 194 200 L 256 280 L 132 280 Z" fill="none" stroke="#FFD700" stroke-width="2" opacity="0.6"/>
  <path d="M 318 200 L 380 280 L 256 280 Z" fill="none" stroke="#FFD700" stroke-width="2" opacity="0.6"/>
</svg>
